#!OML:ASF I:\salsa\salsa 7_09\Patient 1\Session 1\dancermale.ASF
:FULLY-SPECIFIED
:DEGREES
973
root 6.86927 16.457 2.50633 181.151 157.933 541.368
lowerback -0.212002 1.731 8.22458
upperback 1.8096 2.23618 -1.65357
thorax 2.38806 1.28971 -6.28865
lowerneck -4.99151 11.7044 5.22695
upperneck 19.6834 18.2808 -11.8032
head 8.54156 8.21436 -2.94337
rclavicle -5.89397e-014 -6.16232e-015
rhumerus -29.128 12.446 -84.8315
rradius 87.1951
rwrist -8.99564
rhand -29.491 -9.70423
rfingers 7.12502
rthumb -2.82586 -39.6653
lclavicle -5.89397e-014 -6.16232e-015
lhumerus 9.4214 13.0166 65.8151
lradius 14.914
lwrist -92.52
lhand -9.42591 62.0777
lfingers 7.12502
lthumb 16.5364 628.607
rfemur -31.3213 -7.11823 26.0229
rtibia 44.9436
rfoot -18.5484 -13.5589
rtoes 6.31344
lfemur -48.3762 8.49245 -14.5431
ltibia 67.3954
lfoot -1.32878 4.3551
ltoes 1.05163
974
root 6.94353 16.4496 2.62575 181.149 159.523 541.739
lowerback 0.244136 1.614 7.89631
upperback 2.03813 2.11411 -1.58199
thorax 2.33113 1.2273 -6.04036
lowerneck -4.69855 12.0357 5.27961
upperneck 19.1117 18.8011 -12.4802
head 8.42437 8.44486 -3.12723
rclavicle -3.71727e-014 1.35174e-014
rhumerus -29.7526 12.6143 -84.2198
rradius 87.466
rwrist -9.06677
rhand -29.7388 -9.723
rfingers 7.12502
rthumb -3.0652 -39.6807
lclavicle -3.71727e-014 1.35174e-014
lhumerus 8.94374 22.6729 67.0546
lradius 14.0187
lwrist -96.0396
lhand -15.8201 62.3711
lfingers 7.12502
lthumb 10.3737 627.905
rfemur -30.9996 -6.14495 25.6246
rtibia 45.5474
rfoot -19.0981 -13.1616
rtoes 5.40629
lfemur -49.4698 8.24028 -14.2956
ltibia 66.2884
lfoot 0.0456477 3.07628
ltoes -2.01718
975
root 7.02271 16.4458 2.74325 181.095 161.025 541.762
lowerback 0.614881 1.47908 7.92637
upperback 2.22464 1.95543 -1.38645
thorax 2.28422 1.15045 -5.86333
lowerneck -4.59202 12.4062 5.2861
upperneck 18.8269 19.4281 -13.1603
head 8.45071 8.70332 -3.27381
rclavicle 7.20097e-014 -7.15625e-015
rhumerus -30.5094 12.5333 -83.5284
rradius 87.5302
rwrist -9.07465
rhand -29.7478 -9.86981
rfingers 7.12502
rthumb -3.07388 -39.8274
lclavicle 7.20097e-014 -7.15625e-015
lhumerus 8.24726 30.8636 67.6449
lradius 12.5855
lwrist -95.7464
lhand -23.8426 62.5578
lfingers 7.12502
lthumb 2.62933 627.479
rfemur -30.7186 -5.19601 25.5924
rtibia 46.1198
rfoot -19.9933 -13.0009
rtoes 2.92995
lfemur -50.5563 7.97527 -13.6067
ltibia 65.4454
lfoot 1.47475 2.48289
ltoes 0.60676
976
root 7.10949 16.4472 2.85984 181.017 162.382 541.723
lowerback 0.88724 1.28396 8.05381
upperback 2.43607 1.70605 -1.11944
thorax 2.30664 1.03288 -5.66429
lowerneck -4.67785 12.7794 5.04055
upperneck 18.7764 20.0924 -13.6935
head 8.55867 8.95428 -3.31477
rclavicle 4.47762e-014 -2.50469e-014
rhumerus -31.4308 12.3372 -82.7616
rradius 87.5521
rwrist -9.03589
rhand -29.8278 -10.2633
rfingers 7.12502
rthumb -3.15121 -40.2197
lclavicle 4.47762e-014 -2.50469e-014
lhumerus 6.98734 37.6184 67.5148
lradius 12.7161
lwrist -98.0783
lhand -24.5132 62.6468
lfingers 7.12502
lthumb 1.9817 627.383
rfemur -30.341 -4.46815 25.5781
rtibia 46.5806
rfoot -20.9194 -12.7801
rtoes 0.29839
lfemur -51.4738 7.63273 -12.8399
ltibia 64.8251
lfoot 2.2371 1.64656
ltoes 2.05758
977
root 7.20246 16.457 2.96948 180.816 163.685 541.856
lowerback 1.36918 1.06314 8.03271
upperback 2.67307 1.44069 -0.831046
thorax 2.23089 0.900881 -5.36184
lowerneck -3.82543 13.1602 5.16477
upperneck 18.0154 20.7476 -14.8454
head 8.37075 9.27124 -3.68087
rclavicle -7.25564e-015 2.38542e-014
rhumerus -32.4976 11.996 -81.8631
rradius 87.4416
rwrist -8.81635
rhand -30.384 -10.6706
rfingers 7.12502
rthumb -3.68827 -40.6184
lclavicle -7.25564e-015 2.38542e-014
lhumerus 4.90307 42.8872 66.6249
lradius 12.9303
lwrist -98.748
lhand -25.7718 62.7075
lfingers 7.12502
lthumb 0.766123 627.314
rfemur -29.7649 -4.09859 25.2916
rtibia 46.9334
rfoot -21.0974 -11.6375
rtoes 3.09845
lfemur -52.0144 7.24261 -12.2861
ltibia 64.3591
lfoot 2.77362 0.581344
ltoes 0.593518
978
root 7.30328 16.4706 3.07497 180.833 165.199 542.051
lowerback 1.70733 0.951877 7.9315
upperback 2.82434 1.31095 -0.497396
thorax 2.16603 0.831702 -4.96166
lowerneck -4.09692 13.4602 4.55759
upperneck 18.2396 21.3347 -15.1188
head 8.53512 9.46117 -3.58073
rclavicle -2.6339e-014 2.38542e-014
rhumerus -33.6949 11.568 -80.7967
rradius 87.1743
rwrist -8.64568
rhand -31.0934 -11.1873
rfingers 7.12502
rthumb -4.37332 -41.1222
lclavicle -2.6339e-014 2.38542e-014
lhumerus 2.11059 47.3623 65.0918
lradius 13.0198
lwrist -98.5341
lhand -27.3933 62.7783
lfingers 7.12502
lthumb -0.799927 627.243
rfemur -29.5054 -3.92201 24.9118
rtibia 47.325
rfoot -22.218 -11.2997
rtoes -2.13216
lfemur -52.5429 7.02759 -11.77
ltibia 63.9722
lfoot 3.50901 -0.38977
ltoes -0.470382
979
root 7.4043 16.4833 3.18518 181.257 166.881 542.295
lowerback 1.5535 0.927851 7.58779
upperback 2.90481 1.25377 -0.0722865
thorax 2.30666 0.797399 -4.3212
lowerneck -3.53966 13.8432 4.32107
upperneck 17.8068 22.0114 -15.9899
head 8.45367 9.76243 -3.77903
rclavicle -2.08724e-015 7.95139e-015
rhumerus -35.0396 11.0476 -79.6863
rradius 86.8797
rwrist -8.58227
rhand -31.1552 -11.5526
rfingers 7.12502
rthumb -4.43296 -41.4863
lclavicle -2.08724e-015 7.95139e-015
lhumerus -1.10257 52.6428 63.0953
lradius 12.8526
lwrist -99.213
lhand -28.8348 62.6823
lfingers 7.12502
lthumb -2.19219 627.349
rfemur -29.6716 -3.74817 24.4877
rtibia 47.644
rfoot -22.8212 -10.4654
rtoes -4.65841
lfemur -53.2117 7.01447 -11.2127
ltibia 63.5728
lfoot 4.25601 -1.15263
ltoes -0.342407
980
root 7.51533 16.5 3.28529 181.996 168.858 542.46
lowerback 1.2132 1.01478 7.39241
upperback 2.89507 1.33102 0.390121
thorax 2.4799 0.830534 -3.72324
lowerneck -3.18699 14.2225 3.93914
upperneck 17.487 22.6935 -16.7789
head 8.42758 10.0494 -3.91363
rclavicle -5.45664e-014 -1.66979e-014
rhumerus -36.439 10.4625 -78.5859
rradius 86.4253
rwrist -8.491
rhand -31.3137 -11.791
rfingers 7.12502
rthumb -4.58608 -41.7214
lclavicle -5.45664e-014 -1.66979e-014
lhumerus -5.19943 57.9856 60.1142
lradius 12.4905
lwrist -99.9989
lhand -30.5017 62.4131
lfingers 7.12502
lthumb -3.80197 627.641
rfemur -30.297 -3.35658 24.1286
rtibia 47.9836
rfoot -23.1317 -9.2949
rtoes -6.77058
lfemur -53.9777 7.21265 -10.5224
ltibia 63.2074
lfoot 4.88497 -1.75553
ltoes -0.60036
981
root 7.60124 16.5549 3.41731 181.488 170.198 542.467
lowerback 1.83091 0.835574 7.05113
upperback 3.24341 1.12017 0.983383
thorax 2.44644 0.717294 -2.92727
lowerneck -2.94124 14.5579 3.67809
upperneck 17.2478 23.3322 -17.6248
head 8.46984 10.3101 -4.07805
rclavicle 8.54774e-015 -7.95139e-015
rhumerus -38.0297 10.0304 -77.507
rradius 85.885
rwrist -8.50037
rhand -31.9578 -12.5738
rfingers 7.12502
rthumb -5.20798 -42.4898
lclavicle 8.54774e-015 -7.95139e-015
lhumerus -10.6467 63.0184 55.5969
lradius 11.9458
lwrist -100.751
lhand -32.1641 62.0545
lfingers 7.12502
lthumb -5.40717 628.035
rfemur -28.7143 -3.0024 23.8688
rtibia 47.1452
rfoot -23.2979 -8.63852
rtoes -8.06255
lfemur -52.7505 6.77554 -9.33932
ltibia 62.1696
lfoot 5.47809 -2.84464
ltoes -0.0807003
982
root 7.70015 16.6045 3.53528 181.886 172.023 542.698
lowerback 1.78396 0.905204 6.65744
upperback 3.29616 1.19697 1.39254
thorax 2.5148 0.743033 -2.28286
lowerneck -2.76973 14.8328 3.50092
upperneck 17.1785 23.8705 -18.2821
head 8.55912 10.5256 -4.20004
rclavicle 7.15625e-015 1.90833e-014
rhumerus -39.8895 9.49384 -76.6036
rradius 85.2657
rwrist -8.47985
rhand -32.4425 -13.393
rfingers 7.12502
rthumb -5.67593 -43.2969
lclavicle 7.15625e-015 1.90833e-014
lhumerus -19.7802 70.3516 46.8704
lradius 10.9864
lwrist -104.67
lhand -33.5629 61.6421
lfingers 7.12502
lthumb -6.75762 628.486
rfemur -28.4392 -1.94958 23.3646
rtibia 46.6933
rfoot -23.3602 -7.95711
rtoes -9.14121
lfemur -52.2326 6.58414 -8.39966
ltibia 61.1792
lfoot 6.08918 -3.74202
ltoes 0.566604
983
root 7.79018 16.6629 3.66031 182.243 173.853 543.086
lowerback 1.76573 0.969204 6.02876
upperback 3.32126 1.27155 1.69998
thorax 2.53179 0.760877 -1.61481
lowerneck -2.07404 15.0468 3.43874
upperneck 16.3573 24.1537 -19.1196
head 8.30562 10.7111 -4.48256
rclavicle -2.127e-014 -3.02153e-014
rhumerus -41.9419 8.84414 -75.9714
rradius 84.3992
rwrist -8.38158
rhand -32.7589 -13.4555
rfingers 7.12502
rthumb -5.98143 -43.3511
lclavicle -2.127e-014 -3.02153e-014
lhumerus -25.2083 66.5603 43.0587
lradius 11.4675
lwrist -98.7639
lhand -33.9929 60.7116
lfingers 7.12502
lthumb -7.17276 629.43
rfemur -27.9584 -0.525818 22.6681
rtibia 45.99
rfoot -23.3261 -7.49628
rtoes -10.3453
lfemur -51.3164 6.29845 -7.54124
ltibia 59.9759
lfoot 6.64832 -4.9938
ltoes 0.876106
